<?xml version="1.0" encoding="UTF-8"?><svg id="Layer_2" xmlns="http://www.w3.org/2000/svg" viewBox="0 0 1467.31 1069.12"><defs><style>.cls-1{fill:#2ca8dd;}.cls-2{fill:#393b3d;}</style></defs><g id="Layer_1-2"><circle class="cls-1" cx="714.12" cy="360.96" r="323.64"/><path class="cls-2" d="M739.09,0c6.94,2.25,14.25,1.92,21.37,2.85,42.51,5.56,82.74,18.25,120.75,38.02,.42,.22,.75,.61,1.72,1.43-3.85,.51-7.16,.88-10.44,1.41-7.01,1.12-13.68,3.41-19.28,7.74-3.18,2.46-5.6,2.16-8.95,.74-36.36-15.38-74.29-24.17-113.73-26.01-56.08-2.61-109.96,7.26-160.35,32.07-96.76,47.63-158.28,124.26-183.47,229.16-12.4,51.65-11.23,103.61,1.7,155.21,1.6,6.39,1.59,6.32-5.04,7.32-5.37,.81-10.61-.14-15.9-.76-3.19-.37-4.72-1.82-5.51-5.18-9.32-39.75-11.75-79.91-7.49-120.47,6.91-65.89,29.94-125.68,69.96-178.45C482.72,68.23,559.63,21.35,654.82,4.81c11.64-2.02,23.35-3.55,35.18-3.96,.8-.03,1.69,.11,2.13-.84h46.96Z"/><path class="cls-2" d="M406.06,458.79c11.87-2.95,22.12-9.1,31.33-16.85,8.03-6.75,15.02-14.61,21.44-22.93,5.89-7.63,14.12-11.62,22.9-14.34,21.36-6.62,40.47-17.63,59.33-29.25,3.85-2.37,8.06-3.95,12.76-3.7,3.02,.16,4.68,1.38,5.55,4.55,6.1,22.02,18.2,40.29,34.56,56.15,10.87,10.53,23.12,18.91,36.05,26.52,12.51,7.36,25.2,9.17,38.28,1.63,3.87-2.23,8.15-.79,12.22-1.64,5.94-1.24,10.4-4.19,13.95-8.81,1.5-1.95,3.12-3.13,5.69-3.5,9.37-1.37,16.81-5.34,19.06-15.53,.64-2.89,3.36-3.09,5.36-3.87,4.56-1.79,8.77-4.01,12.19-7.56,3.8-3.95,4.72-10.08,2.05-14.75-1.05-1.84-2.3-3.95-5-3.28-15.38,3.84-30.33,.06-45.36-2.42-5.4-.89-10.8-1.8-16.21-2.68-6.2-1.01-8.22-5.58-4.66-10.86,3.86-5.73,10.11-7.91,16.13-10.28,4.02-1.59,8.14-2.92,11.79-5.3,3.56-2.31,6.12-5.48,5.68-9.84-.48-4.77-4.22-6.88-8.42-8.15-1.26-.38-2.59-.72-3.9-.75-24.02-.48-47.95-.51-70.39,10.22-3.92,1.87-8.5,2.42-12.03-1.37-3.64-3.9-2.67-8.49-.75-12.61,2.79-5.98,7.39-10.53,12.94-14.18,31.92-20.95,61.08-45.35,89.5-70.74,10.05-8.98,18.87-19.29,29.62-27.45,17.36-13.18,36.84-18.14,58.61-15.72,19.38,2.16,37.4,7.91,53.85,18.15,19.84,12.35,31.44,30.14,33.28,53.77,.47,6.06-1.23,8.44-7.18,10.02-10.01,2.67-19.91,1.27-29.49-1.83-9.63-3.12-18.98-7.1-28.53-10.49-4.26-1.51-9.1-4.49-13.03-.37-3.78,3.97-1.16,8.9,.37,13.17,2.64,7.39,7.73,12.56,15.02,15.79,7.95,3.53,8.19,7.16,1.23,12.35-9.74,7.26-20.5,7.92-31.8,4.81-6.89-1.9-13.73-3.96-20.61-5.86-3.41-.94-6.93-.95-10.42-.63-7.62,.69-10.53,5.69-7.26,12.51,2.12,4.41,5.26,8.07,9.08,11.12,2.74,2.19,4.2,4.75,4.09,8.51-.29,9.88,4.49,16.8,13.43,20.73,3.52,1.55,5.77,3.35,6.93,7.48,2.62,9.35,10.26,12.98,19.18,14.07,3,.37,5.16,1.19,7.3,3.43,5.48,5.72,12.36,5.82,19.39,3.61,14.82-4.66,27.36-13.45,39.81-22.36,1.3-.93,2.4-2.33,4.7-2.13-.63,7.44-4.07,13.72-8.16,19.46-9.42,13.22-19.67,25.86-28.9,39.21-10.26,14.83-18.82,30.68-21.54,48.82-3.74,24.94-3.17,49.69,5.72,73.68,4.32,11.67,12.14,19.98,24.18,24.15,12.8,4.43,16.96,10.63,16.45,24.38-.16,4.41,.4,7.73,6.96,7.82-6.31,5.89-11.06,11.76-19.85,11.09-11.09-.85-21.2,3.62-31.55,6.47-17.93,4.94-35.9,9.64-54.11,13.52-19.43,4.15-39.03,5.75-58.86,5.71-11.25-.02-22.04-2.84-33.01-4.53-15.1-2.33-30.15-4.96-45.21-7.55-4.67-.8-9.28-1.88-13.88-3.33,8.03-1.49,16.09-1.16,24.08-.59,19.72,1.41,39.44,3,59.12,4.91,37.75,3.66,73.26-5.19,107.99-18.7,3.05-1.19,6.44-1.72,9.04-4.16-3.21-1.58-6.72-2.17-9.67-4.16-4.78-3.22-7.17-7.75-5.98-13.24,1.47-6.81-.16-12.96-2.93-18.84-6.49-13.83-15.33-26.22-26.54-36.49-9.47-8.67-11.53-18.41-8.06-30.14,1.46-4.95,2.93-9.88,5.13-14.57,7.88-16.79,10.09-34.5,8.72-53.3-1.11,.49-1.92,.68-2.54,1.13-19.89,14.44-42.83,20.92-66.53,25.18-21.6,3.89-43.53,4.88-65.32,7.04-22.01,2.18-38.71,13.16-49.89,32.34-5.65,9.69-9.64,20.04-12.57,30.84-3.66,13.5-11.16,24.75-20.44,34.99-10.66,11.77-23.08,21.54-35.49,31.33-.63,.5-1.13,1.16-1.68,1.75-17.13,12.81-35.44,24.18-49.99,40.17-12.86,14.14-15.69,30.66-10.77,48.79,1.81,6.67,5.46,12.04,11.6,15.55,11.24,6.43,14.6,18.91,8.2,30.28-.32,.56-.63,1.13-1.2,2.14,6.01,1.24,11.79,2.26,17.48,3.66,3.14,.78,6.62,1.24,8.64,4.36-.15,.57-.3,1.14-.45,1.72-2.88,2.4-6.44,3.04-9.92,3.88-.37-.42-.71-.42-.99,.1-2.16,.22-4.33,.44-6.48,.66-2.14-.58-4.26-.57-6.33,.33-10.89,0-21.78,0-32.65,0-2.5-.02-4.93-.02-7.32-.17-6.23-.3-63.67-3.55-66.47-3.76-5.07-.39-6.18-2.31-.32-2.28,6.95-.27,59.24-2.17,60.79-2.25,1.54-.23,2.96,.07,4.49-.62-1.79-.11-3.19-.65-4.71-.99-2.08-.54-6.43-1.67-7.16-2.07-6.98-3.31-7.56-4.52-7.15-11.79,.8-14.17-3.13-27.6-6.68-41.09-2.88-10.92-6.3-21.71-7.12-33.08-.55-7.7,1.51-13.96,7.38-19.63,14.48-13.96,21.99-31.81,26.18-51.16,4.84-22.36,5.24-44.82,.89-67.31-.38-1.95-1.08-3.83-1.62-5.74,1.66-.97,1.19-2.64,1.15-4.03-.35-11.06,2.72-21.26,7.66-31,1.85-3.64,3.72-7.27,5.61-10.97-.65-.22-1.01-.47-1.25-.39-10.91,3.8-21.83,7.57-33.02,10.48-25.62,5.1-51.28,5.34-76.65-1.01-41.64-10.42-73.96-43.13-58.97-97.27,1.62-5.86,3.61-11.58,7.06-16.83-.83,5.6-1.89,11.17-2.45,16.8-2.73,27.4,7.99,48.12,30.45,59.17,8.6,4.23,17.77,6.53,27.19,7.94,17.39,2.61,34.76,3.17,52.05-.76,2.9-.66,5.7-1.73,8.55-2.62Z"/><path class="cls-2" d="M969.48,162.8c-13.61,2.25-26.46,6.57-37.55,14.98-8.29,6.28-11.46,15.63-13.92,25.26-4.41,17.23-5.46,35.02-8.86,52.41-1.58,8.07-3.18,16.21-8.79,23.9-2.44-6.51-4.35-12.28-6.74-17.85-14.44-33.74-39.77-53.65-76.1-59.33-14.41-2.25-28.79-2.49-43,1.55-1.11,.31-2.42,.83-3.23-.29-.64-.88,.09-1.92,.53-2.8,5.27-10.58,10.85-20.96,18.81-29.87,1.66-1.86,3.28-2.51,5.93-2.41,19.71,.77,37.91-3.56,53.25-16.77,6.09-5.24,10.99-11.53,15.81-17.88,.63-.83,1.82-2,.67-3.07-1.52-1.41-2.4,.32-3.18,1.19-5.31,5.97-10.76,11.76-17.1,16.69-9.42,7.33-19.94,12.08-31.8,13.16-9.93,.9-19.94,1.21-29.75-1.35-2.03-.53-4.72-.8-5.24-3.19-.52-2.39,2.12-3.03,3.64-4.19,12.91-9.8,20.26-23.03,23.88-38.57,.79-3.4,1.68-6.77,2.44-10.17,2.39-10.64,9.28-17.33,18.86-21.72,6.34-2.91,12.95-5.27,18.77-9.24,1.61-1.1,3.69-1.7,4.17-3.98,3.68-1.39,6.3-4.28,9.15-6.77,7.37-6.45,15.82-9.6,25.61-9.24,5.32,.2,10.64,.2,15.95,.54,7.71,.5,15.19-.13,22.69-2.27,9.96-2.84,20.23-3.87,30.62-3.44,5.74,.24,10.57,2.03,14.44,6.64,2.97,3.54,6.62,6.53,10,9.72,9.96,9.39,22.45,9.63,35.05,9.9,16.62,.35,33.24,1.02,49.86,1.68,6.38,.25,8.38,2.07,10.08,8.29,4.53,16.52-6.62,41.14-22,48.68-6.91,3.39-13.85,2.57-20.86,.42-3.96-1.21-7.87-2.78-12.12-2.61-1.4,.06-3.39-.32-3.93,1.4-.55,1.76,1.26,2.59,2.5,3.28,9.06,5.1,18.65,8.72,28.98,10.22,1.92,.28,4.66-.39,5.26,1.81,.72,2.63-1.89,4.04-3.84,5.22-7.68,4.64-16.12,5.9-24.95,5.43-18.2-.96-36.21,.5-53.98,4.64Z"/><path class="cls-2" d="M1049.54,363.43c-.49-67.59-17.9-128-53.1-183.18-3.07-4.81-3.08-4.85,2.54-6.06,6.88-1.49,13.86-1.54,20.87-1.59,3.13-.02,3.79,2.3,4.92,4.19,23.71,39.97,40.04,82.77,46.14,128.85,17.59,132.84-23.61,244.37-124.84,332.35-52.64,45.75-114.75,72.52-184.1,81.33-94.97,12.07-181.61-9.81-259.84-65.06-3.94-2.78-3.86-4.64-.28-7.18,.13-.1,.24-.23,.36-.35,4.52-4.22,9.23-8.78,14.87-10.78,6.69-2.38,10.64,4.65,15.49,7.74,42.24,26.86,88.06,44.24,137.68,50.15,100.86,12.01,190.4-14.99,266.67-82.22,62.11-54.75,98.04-124.19,109.68-206.15,2.08-14.68,2.71-29.48,2.94-42.05Z"/><path class="cls-1" d="M1322.52,934.4c3.77-10.69,5.51-21.65,7.94-32.42,4.13-18.29,6.69-36.95,12.9-54.75,1.48-4.23,3.67-7.42,8.73-7.49,7.85-.11,11.75,4.77,10.31,13.24-1.47,8.67-3.02,17.34-4.64,25.98-5.86,31.2-11.86,62.37-22.26,92.48-3.04,8.79-6.56,11.27-14.88,11-4.4-.14-7-2.27-8.71-6.2-9.89-22.77-14.89-46.82-18.64-71.19-.52-3.39-1.02-6.79-1.74-11.55-4.03,10.38-6.09,19.89-7.74,29.45-2.83,16.37-5.28,32.8-8.99,49-1.18,5.16-2.52,10.03-8.47,11.83-7.29,2.21-13.06-.93-15.73-8.94-6.49-19.43-11.43-39.25-15.28-59.37-3.68-19.25-7.66-38.44-11.41-57.68-.54-2.75-.73-5.62-.67-8.43,.11-5.48,3.24-8.94,8.27-9.55,5.33-.64,9.03,1.51,10.52,6.95,4.17,15.22,6.87,30.76,9.79,46.25,2.32,12.33,4.74,24.64,7.4,38.39,3.02-6.21,3.86-11.42,4.96-16.54,3.5-16.42,6.85-32.9,13.38-48.47,2.56-6.12,5.49-12.05,9.97-17.15,6.12-6.99,20.71-5.88,23.48,6.27,3.24,14.19,4.13,28.61,5.47,42.99,.96,10.28,2.32,20.48,3.96,30.65,.27,1.67,.23,3.66,2.1,5.23Z"/><path class="cls-1" d="M162.15,918.74c3.48-7.41,7.67-13.36,13.78-17.68,17.95-12.68,38.26-9.56,51.5,7.85,12.46,16.37,9.09,38.13-8.08,51.71-7.98,6.31-16.99,11.05-25.58,16.43-9,5.64-16.57,12.8-22.97,21.18-2.07,2.71-3.55,3.41-6.16,.64-9.68-10.27-21.79-16.74-34.8-21.77-8.24-3.18-16.26-6.79-23.39-12.12-17.4-13-20.37-36.29-6.74-52.89,13.49-16.43,37.81-18.02,53.63-3.5,3.06,2.81,5.82,5.92,8.81,10.15Z"/><path class="cls-1" d="M569.97,989.67c-1.66,0-3.33-.01-4.99,0-10.45,.09-17.18-6.36-17.55-16.81-.75-21.77-1.66-43.53-.79-65.32,.75-18.75,1.68-37.5,2.45-56.25,.18-4.37,1.81-8.19,5.77-9.76,12.19-4.85,24.62-7.31,37.13-.89,14.36,7.37,20.1,22.93,14.37,39.28-1.31,3.75-2.89,7.5-5,10.84-2.11,3.32-1.04,5.02,1.77,6.84,3.49,2.25,6.96,4.56,10.2,7.14,7.62,6.08,10.65,14.38,11.95,23.83,1.55,11.24,1.4,22.23-2.39,32.96-6.23,17.63-20.52,24.33-37.52,27.02-5.07,.8-10.26,.88-15.39,1.3,0-.06-.01-.12-.02-.18Zm-2.96-42.85c.08,0,.16,0,.24,0,0,6.15,.02,12.3-.01,18.44-.01,2.08,.37,3.81,3.01,3.25,4.28-.91,8.63-.27,12.91-.71,8.37-.85,16.16-2.8,19.87-11.66,4.88-11.67,3.87-23.02-1.82-34.12-1.65-3.21-4.3-5.04-7.92-5.23-7.43-.38-14.57,.8-21.26,4.2-3.42,1.74-5.17,4.39-5.06,8.39,.16,5.81,.04,11.63,.04,17.44Zm.97-51.52c7.37-4.53,12.45-9.95,16.54-16.27,2.91-4.5,3.76-9.59,2.44-14.81-1.16-4.56-5.95-7.26-11.4-6.94-3.79,.22-5.9,2.17-6.1,5.88-.55,10.41-.97,20.82-1.48,32.15Z"/><path class="cls-1" d="M1144.67,837.86c8.38-.08,14.73,5.3,17.46,14.37,3.56,11.87,4.15,24.24,6.25,36.35,5.11,29.45,9.84,58.97,14.72,88.46,1.38,8.35-3.84,14.38-11.59,13.3-5-.7-7.38-4.01-8.44-8.62-3.23-14.09-5.64-28.35-7.85-42.62-.61-3.92-2.13-5.35-6.02-5.53-9.62-.45-19.26-1.05-28.83-2.06-3.56-.37-4.61,1.04-5.38,3.96-4.02,15.24-9.07,30.21-11.48,45.88-1.23,7.98-4.88,10.5-11.8,9.45-5.82-.88-9.04-6.04-8.17-13.25,2.2-18.25,8.07-35.63,12.84-53.26,5.74-21.26,14.08-41.52,23.63-61.32,3.64-7.54,7.91-14.62,13.96-20.52,2.99-2.92,6.48-4.61,10.71-4.59Zm-1.42,28.27c-.86,.82-1.27,1.09-1.53,1.47-8.07,12.19-12.44,26.04-17.75,39.48-.98,2.48,.38,3.2,2.4,3.75,6.66,1.8,13.45,1.96,20.28,1.87,3.29-.05,4.23-1.62,3.71-4.83-.85-5.24-1.26-10.55-1.98-15.82-1.16-8.53-1.95-17.14-5.14-25.92Z"/><path class="cls-1" d="M474.54,984.54c-3.41-14.56-6.29-29.22-8.25-44.04-.65-4.87-2.5-7.04-7.89-7.09-9.12-.08-18.25-.94-27.32-1.98-3.39-.39-4.34,.8-5.13,3.6-4.27,15.19-9.14,30.21-11.62,45.86-1.28,8.05-4.35,10.61-10.93,10.01-6.19-.56-9.51-4.88-9.09-12.49,.62-11.2,4.03-21.87,6.79-32.64,7.64-29.86,17.25-59.01,31.47-86.47,2.68-5.19,5.89-9.98,9.72-14.43,4.75-5.53,10.26-8.34,17.61-6.39,7.66,2.03,11.3,7.65,13.24,14.82,3.75,13.84,4.53,28.18,7.04,42.23,4.77,26.81,9.07,53.7,13.49,80.57,1.74,10.55-3.03,15.25-13.89,13.96-3.71-.43-4.29-2.44-5.21-5.52Zm-20.75-118.94c-9.18,13.59-14.04,27.91-19.37,42.01-.93,2.47,.86,2.73,2.51,3.21,6.31,1.86,12.79,1.82,19.28,1.93,3.8,.07,5.69-.89,4.88-5.07-.57-2.93-.77-5.92-1.15-8.89-1.38-10.82-2.09-21.77-6.15-33.2Z"/><path class="cls-1" d="M1446.97,941.71c-.12-1.85-.24-4.85-.5-7.83-.64-7.08-4.08-12.09-10.78-14.87-3.99-1.65-7.79-3.76-11.73-5.54-16.47-7.43-20.09-19.74-19-34.84,.61-8.43,3.37-16.22,7.74-23.46,8.36-13.87,21.67-16.48,34.67-6.75,10.16,7.6,15.97,17.32,14,30.42-.87,5.78-3.71,8.1-8.86,8.32-6.22,.26-9.15-1.62-10.87-7.23-.58-1.89-.87-3.89-1.1-5.87-.25-2.2-.8-4.31-2.23-5.98-1.7-1.99-3.54-4.85-6.09-4.58-2.16,.23-2.56,3.6-3.42,5.69-1.19,2.92-2.12,5.96-2.92,9.01-2.11,8.05,.26,13.58,7.67,17.44,4.27,2.22,8.83,3.89,13.15,6.03,11.97,5.94,18.79,15.5,19.97,28.92,1.06,11.99,1.13,23.94-2.13,35.66-5.24,18.83-21.7,29.1-40.1,24.61-12.58-3.07-20.61-11.5-23.55-23.95-2.29-9.67-3.47-19.62-4.83-29.49-.63-4.52,1.45-8.16,5.51-10.34,4.32-2.33,8.84-3.24,13.2-.16,3.96,2.8,3.93,6.66,3.2,11.14-1.57,9.63,.54,18.97,4.76,27.55,3.55,7.22,13.32,7.78,18.3,1.45,5.59-7.11,5.86-15.67,5.96-25.36Z"/><path class="cls-1" d="M1050.94,896.44c.34,6.82,.22,13.68-3.1,19.93-4.91,9.22-13.3,13.1-23.18,14.37-5.76,.74-11.54,1.49-17.34,1.86-3.47,.22-4.47,1.65-4.46,4.98,.03,12.14-.16,24.29-.34,36.43-.1,7.11-3.24,11.96-8.09,12.75-7.43,1.21-12.21-2.18-12.49-9.74-.38-10.63-.2-21.29-.14-31.93,.11-17.13,.3-34.27,.5-51.4,.14-12.3,.33-24.61,.54-36.91,.03-1.99,.16-4,.49-5.96,1.3-7.67,5-11.38,12.79-11.28,9.29,.12,18.66,.45,27.76,2.64,13.05,3.13,19.22,12.82,22.81,24.73,2.89,9.61,4.68,19.4,4.25,29.54Zm-48.03-9.67c0,6.14,.05,12.28-.02,18.42-.05,3.99,1.91,5.65,5.79,5.76,5.01,.14,9.93-.63,14.85-1.27,4.72-.61,6.79-3.61,6.99-8.19,.36-8.34-.37-16.54-2.63-24.61-4.05-14.5-5.63-15.68-20.58-16.05-2.46-.06-3.33,.35-3.65,3.06-.89,7.63-.22,15.26-.76,22.87Z"/><path class="cls-1" d="M849.61,988.51c-13.04,1.85-26.2,1.94-39.31,2.81-10.82,.72-18.59-6.7-18.71-18.08-.31-29.96-.36-59.92-.4-89.88-.01-9.15,.34-18.3,.53-27.44,.2-9.43,3.44-12.97,12.73-13.74,9.28-.76,18.57-1.46,27.86-2.11,2.65-.18,5.31-.15,7.91,.67,5.58,1.76,7.84,4.59,7.51,9.63-.4,6.11-3.61,9.98-9.35,10.47-6.79,.58-13.62,.89-20.43,.99-3.17,.05-4.57,1.33-4.68,4.32-.42,10.63-.8,21.27-1.26,31.9-.11,2.65,1.06,3.55,3.6,3.32,4.47-.4,8.95-.69,13.43-.98,3.15-.21,6.32-.64,9.45-.45,6.01,.37,9.66,3.91,9.98,9.16,.36,5.88-2.47,9.48-8.95,10.52-8.03,1.29-16.12,2.3-24.21,3.15-2.85,.3-3.66,1.51-3.63,4.11,.17,12.98,.33,25.96,.34,38.95,0,3,1.01,4.27,4.07,4.04,6.96-.51,13.94-.88,20.9-1.33,.99-.06,1.97-.28,2.97-.36,5.25-.42,10.43-.61,13.82,4.61,3.53,5.44,.66,9.8-2.3,14.17-.63,.51-1.27,1.03-1.9,1.54Z"/><path class="cls-1" d="M321.82,947.88c2.03-9.25,3.92-17.97,5.86-26.67,4.63-20.75,9.29-41.5,13.92-62.25,.5-2.26,.63-4.62,1.27-6.84,1.65-5.69,7.4-9.24,12.67-8.02,5.64,1.3,8.57,6.28,7.18,12.7-7.45,34.44-14.23,69.03-23.21,103.11-1.85,7.03-3.72,14.13-7.6,20.51-2.6,4.27-5.71,7.45-10.99,7.32-5.25-.13-8.22-3.34-10.64-7.78-8.45-15.48-10.69-32.82-15.13-49.48-4.96-18.64-9.71-37.34-14.1-56.12-1.54-6.59-2.15-13.47-2.47-20.24-.33-6.89,3.18-10.48,9.54-11.03,6.42-.55,9.75,2.35,10.5,9.78,1.42,14.1,4.88,27.8,8.08,41.52,3.9,16.66,8.47,33.17,12.75,49.75,.29,1.11,.34,2.33,2.36,3.75Z"/><path class="cls-1" d="M.16,904.3c0-17.14,.03-34.29-.01-51.43-.01-6.29,3.59-11.03,9.17-11.8,6.84-.96,11.2,2.52,11.4,9.81,.31,11.13,.31,22.28,.2,33.41-.21,19.63-.56,39.26,.2,58.89,.24,6.14,.19,12.29,.35,18.44,.22,8.19,1.56,9.55,9.79,9.32,7.14-.21,14.28-.88,21.42-1.06,6.69-.17,10.25,2.71,10.94,8.34,.71,5.85-1.89,9.48-8.31,10.98-12.3,2.88-24.76,3.33-37.18,1.18-8.25-1.43-13.66-6.29-15.46-14.88C.6,965.66-.08,955.76,0,945.75c.12-13.81,.03-27.63,.03-41.45,.04,0,.08,0,.12,0Z"/><path class="cls-1" d="M707.26,991.33c-8.26,.29-16.33-.17-23.08-5.88-3.24-2.74-4.82-6.41-5.47-10.39-1.24-7.54-2.36-15.1-2.28-22.79,.27-28.77,.48-57.55,.65-86.33,.02-4.15-.25-8.31-.48-12.45-.4-7.34,3.71-12.32,10.41-12.52,6.46-.19,10.17,3.73,10.18,11.4,.03,26.29-.18,52.59-.09,78.88,.04,10.97,.73,21.94,.9,32.92,.07,5.02,2.66,6.9,7.2,6.73,6.97-.26,13.94-.74,20.92-1,11.38-.43,14.44,2.75,13.64,13.96-.15,2.46-1.88,4.05-5.7,4.88-6.33,1.2-14.39,2.21-26.79,2.59Z"/><path class="cls-1" d="M208.51,858.85c.08,16.58-11.55,28.88-26.02,27.36-6.79-.71-12.17-4.03-16.22-9.55-7.77-10.59-8.97-22.08-3.71-33.87,7.55-16.93,28.89-18.69,39.66-3.57,3.91,5.48,6.25,12.81,6.28,19.63Z"/><path class="cls-1" d="M154.98,856.83c.31,6.52-1.47,12.52-5.05,17.91-5.37,8.07-12.71,12.63-22.7,11.45-9.21-1.09-14.95-6.85-18.23-15.06-4.63-11.56-2.9-22.57,4.34-32.52,5.81-7.99,15.71-11.39,24.18-8.97,9.35,2.68,16.51,11.96,17.45,22.71,.13,1.48,.02,2.99,.02,4.48Z"/><path class="cls-2" d="M431.22,586.14c-9.81-11.81-17.71-23.44-25.14-35.42-7.71-12.43-14.48-25.36-20.73-38.59-1.3-2.74-1.62-4.11,2.29-3.88,6.81,.39,13.65,.07,20.4-.96,2.85-.44,4.15,.6,5.33,3.05,4.67,9.74,10.06,19.09,15.74,28.27,.69,1.12,1.59,2.35,1.65,3.56,.74,14.24,2.37,28.47,.46,43.97Z"/><path class="cls-1" d="M253.76,872.9c-.08,8.85-2.47,15.37-7.92,20.62-7.15,6.87-16.89,6.95-24.17,.23-9.88-9.12-11.32-27.77-2.95-38.38,8.44-10.69,22.73-10,30.17,1.45,3.45,5.31,5.1,11.12,4.86,16.09Z"/><path class="cls-1" d="M106.99,885.71c.04,7.78-2.13,14.79-7.64,20.44-7.68,7.88-19.14,7.45-26.34-.82-8.98-10.32-8.48-28.62,1.05-38.43,8.81-9.07,21.93-7.4,28.72,3.65,2.61,4.24,4.17,9.9,4.2,15.17Z"/><path class="cls-2" d="M291.28,485.27c-40.37-20.11-57.19-66.54-51.26-104.06,9.86,38.22,27.74,71.95,51.26,104.06Z"/><path class="cls-2" d="M240.17,474.77c23.31,18.42,49.34,27.41,77.75,31.06-23.59,11.61-61.24,5.6-77.75-31.06Z"/><path class="cls-1" d="M418.83,493.37c11.19-2.91,22.11-6.68,33.02-10.48,.24-.08,.6,.18,1.25,.39-1.89,3.69-3.77,7.32-5.61,10.97-4.93,9.74-8.01,19.94-7.66,31,.04,1.39,.51,3.06-1.15,4.03-7.35-9.09-11.88-19.77-17.05-30.09-.96-1.92-1.86-3.88-2.79-5.82Z"/><path class="cls-2" d="M474.54,1030.47c2.28,1.33,4.24,2.96,5.21,5.52,1.51,5.33,.73,9.95-4.32,13.07-1.91,1.18-1.33,2.22-.38,3.62,2.51,3.66,4.92,7.39,7.56,11.38-4.99,1.41-8.4,.71-10.51-4.01-1.14-2.55-2.99-4.79-4.48-7.2-.75-1.22-1.69-2.13-3.22-1.84-1.86,.36-1.46,1.94-1.49,3.21-.05,2.16-.18,4.34,.02,6.49,.27,3.02-.8,4.01-3.92,4.03-3.4,.02-3.23-1.85-3.22-4.14,.04-8.99,.12-17.98-.05-26.97-.06-2.99,.7-4.24,3.88-3.96,4.95,.43,9.99-.59,14.9,.81Zm-11.62,9.56c-.33,3.04-.2,5.33,3.94,4.98,3.39-.28,6.76-.44,6.69-4.74-.06-4.08-3.53-4.03-6.58-4.35-3.34-.35-4.68,.91-4.05,4.1Z"/><path class="cls-2" d="M707.26,1037.27c.2-2.11,.46-4.22,.57-6.34,.11-2.1,.77-3.33,3.2-3.32,2.28,0,3.29,.87,3.36,3.13,.07,2.12,.33,4.23,.51,6.35-.92,7.95-.46,15.92-.41,23.88,.02,3.33-1.49,4.35-4.15,3.57-2.75-.8-5.18-.45-7.9,.1-4.91,.99-8.84-1.13-11.27-5.49-2.46-4.43-2.33-8.96,.51-13.21,2.81-4.21,7.04-5.99,11.71-4.48,5.32,1.73,4.71-.84,3.87-4.18Zm.86,15.43c-.51-3.65-2.63-5.68-6.36-5.48-3.56,.18-5.51,2.49-5.4,5.91,.11,3.42,2.19,5.59,5.75,5.57,3.77-.02,5.7-2.21,6-6Z"/><path class="cls-2" d="M734.05,1034.68c1.48-2.11,3.38-3.74,5.7-4.88,4.19-.59,8.35-.79,11.96,1.94,1.01,.76,3.25,1.48,1.58,3.27-1.15,1.24-2.1,3.83-4.75,2.23-.43-.26-.84-.55-1.28-.77-2.42-1.17-5.17-1.83-6.59,.92-1.57,3.02,1.02,4.44,3.41,5.49,2.28,1.01,4.66,1.8,6.86,2.95,3.95,2.06,5.69,5.46,5.29,9.89-.39,4.3-3.01,6.92-6.83,8.42-5.11,2-12.02,.28-15.54-3.85-.86-1-2.76-2.28-.7-3.6,1.52-.97,2.98-3.81,5.42-1.15,2.04,2.23,4.52,3.35,7.59,2.63,1.53-.36,2.85-1.09,3.1-2.82,.24-1.65-.41-3.01-1.91-3.72-2.4-1.14-4.89-2.09-7.3-3.19-6.24-2.86-7.96-6.81-6.01-13.75Z"/><path class="cls-2" d="M655.31,1052.9c0,2.65-.21,5.32,.05,7.95,.31,3.19-1.11,4.57-3.94,3.69-3.04-.95-5.74-.4-8.71,.14-4.98,.9-8.76-1.5-11.04-5.85-2.44-4.65-2.08-9.33,1.17-13.55,3.08-4,7.24-4.98,12.01-3.71,.79,.21,1.62,1.03,2.27,.88,2.74-.63,6.2-2.78,7.89,.17,1.29,2.25,.29,5.82,.31,8.8,0,.5,0,.99,0,1.49Zm-11.71-5.73c-3.7-.1-6.07,1.52-6.47,5-.42,3.67,1.45,6.17,5.24,6.48,3.72,.3,6.11-1.71,6.36-5.44,.23-3.52-1.91-5.45-5.12-6.04Z"/><path class="cls-2" d="M784.93,1052.85c0,2.82-.14,5.64,.04,8.45,.18,2.67-1.06,4.05-3.42,3.23-3.38-1.17-6.45-.15-9.69,.23-5.05,.59-8.67-1.9-10.79-6.33-2.16-4.54-1.8-9.05,1.34-13.1,3.1-4,7.23-4.99,12-3.77,1.09,.28,2.2,1.04,3.21,.91,7.3-.96,7.29-1.02,7.3,5.92,0,1.49,0,2.98,0,4.47Zm-6.57,.35c-.23-3.78-2.15-5.96-5.92-5.99-3.55-.02-5.61,2.07-5.73,5.54-.12,3.46,1.79,5.71,5.32,5.93,3.74,.23,5.83-1.81,6.33-5.48Z"/><path class="cls-2" d="M916.33,1053.2c0,2.48-.24,5,.05,7.44,.49,4.03-2.05,4.95-4.7,3.81-2.76-1.19-4.84-.25-7.3,.2-4.91,.91-8.77-1.03-11.42-5.22-2.67-4.21-2.33-10,.74-14.02,3.08-4.04,7.19-5.04,11.95-3.9,.79,.19,1.54,.95,2.28,.9,2.8-.19,6.36-3.2,8.1,.46,1.22,2.57,.26,6.18,.27,9.33,0,.33,0,.66,0,.99h.02Zm-6.47-.29c-.35-3.21-2.04-5.48-5.56-5.7-3.77-.23-6.09,1.84-6.24,5.56-.14,3.46,1.87,5.7,5.39,5.91,3.77,.23,5.8-1.91,6.41-5.78Z"/><path class="cls-2" d="M499.93,1054.16c-1.33,0-2.67-.13-3.98,.04-1.3,.16-3.38-.91-3.64,1.31-.22,1.85,1.36,2.83,2.97,3.53,2.07,.9,4.13,.47,5.6-.88,2.39-2.19,4.91-1.2,6,.52,1.31,2.06-1.39,3.33-2.9,4.35-5.62,3.81-14.23,1.97-17.6-3.62-3.37-5.59-1.56-13.4,3.86-16.68,5.88-3.55,14.03-1.73,17.05,3.81,3.05,5.59,1.88,7.63-4.38,7.64-1,0-1.99,0-2.99,0v-.02Zm1.61-4.58c-3.83-4.53-6.61-4.31-8.48,0h8.48Z"/><path class="cls-2" d="M604.87,1054.17c-1.5,0-3.01-.1-4.49,.03-1.17,.1-2.94-.69-3.2,1.31-.19,1.45,.91,2.44,2.09,3.13,2.27,1.33,4.66,1.15,6.52-.5,2.42-2.15,4.94-1.17,6,.59,1.25,2.08-1.49,3.32-3.01,4.35-5.43,3.66-13.99,1.91-17.34-3.39-3.6-5.68-1.72-13.89,3.91-17.09,5.88-3.33,13.73-1.56,16.74,3.78,3.13,5.55,1.92,7.78-4.21,7.78-1,0-2,0-3,0Zm-7.21-4.64c1.49,.09,2.92,.38,4.29,.19,1.31-.18,3.85,1.16,3.65-1.33-.16-1.95-2.59-2.27-4.46-2.04-1.64,.2-3.18,.78-3.48,3.18Z"/><path class="cls-2" d="M662.85,1052.8c0-2.98,.06-5.97-.02-8.95-.04-1.63,.49-2.77,2.2-2.41,4,.83,7.91-.11,11.86-.19,4.39-.09,7.01,3,7.35,7.29,.36,4.45,.04,8.95,.17,13.42,.07,2.33-1.1,2.78-3.06,2.68-1.8-.09-3.78,.39-3.68-2.55,.11-3.15-.03-6.3-.02-9.45,.01-2.86-.25-5.53-4.08-5.39-3.69,.13-4.01,2.77-4,5.62,0,2.98-.15,5.98,0,8.95,.14,2.7-1.37,2.82-3.43,2.85-2.14,.03-3.49-.3-3.33-2.92,.18-2.97,.04-5.97,.04-8.95Z"/><path class="cls-2" d="M886.1,1050.22c0,1.33,.02,2.65,0,3.98-.11,7.24-3.22,10.47-10.16,10.6-7.51,.14-10.83-2.86-11.1-10.16-.12-3.15,.08-6.3-.07-9.45-.12-2.49,.18-3.91,3.36-3.94,3.42-.03,3.78,1.49,3.62,4.23-.18,2.97-.07,5.97,0,8.95,.05,2.43,.98,4.3,3.75,4.25,2.73-.05,3.65-1.87,3.66-4.34,0-2.82,.08-5.64,0-8.45-.08-2.64-.24-4.71,3.68-4.64,3.78,.06,3.33,2.17,3.27,4.51-.03,1.49,0,2.98,0,4.48Z"/><path class="cls-2" d="M792.25,1052.67c0-2.33,.27-4.7-.06-6.98-.68-4.84,2.33-4.93,5.42-4.1,1.81,.49,3.14,.64,5,.03,6.1-1.99,10.94,1.59,11.23,8.12,.17,3.82-.09,7.66,.08,11.48,.11,2.58-.76,3.49-3.4,3.48-2.59,0-3.59-.8-3.45-3.44,.17-3.32,.04-6.65,0-9.98-.03-2.59-1.28-4.08-3.96-4.05-2.63,.03-3.98,1.54-4.06,4.07-.11,3.49-.18,6.99-.04,10.48,.1,2.68-1.39,2.84-3.46,2.89-2.24,.05-3.45-.48-3.32-3.02,.15-2.99,.04-5.99,.04-8.98h-.02Z"/><path class="cls-2" d="M584.51,1050.23c0,1.5,.04,2.99,0,4.49-.2,6.84-3.43,10.03-10.19,10.12-7.3,.1-10.71-2.89-10.99-9.83-.14-3.49,.15-7-.11-10.47-.21-2.92,1.24-3.18,3.57-3.23,2.54-.06,3.6,.68,3.43,3.38-.21,3.31-.11,6.65-.01,9.97,.07,2.22,1.07,3.92,3.55,3.99,2.77,.09,3.78-1.69,3.83-4.17,.05-2.83,.05-5.65,.02-8.48-.03-2.52-.48-4.85,3.59-4.78,3.76,.07,3.38,2.15,3.32,4.51-.04,1.5,0,2.99,0,4.49Z"/><path class="cls-2" d="M832.2,1064.83c-6.38,.06-10.98-3-12.69-8.19-1.67-5.07,.27-10.67,4.69-13.56,4.51-2.95,11.46-2.76,15.41,.61,1.4,1.19,3.94,2.78,2.4,4.65-1.32,1.61-4,3.21-6.4,.38-.67-.79-1.98-1.26-3.06-1.42-2.69-.41-4.99,.42-6.2,3.04-1.06,2.3-.83,4.6,.88,6.51,1.87,2.08,4.3,2.42,6.82,1.4,.88-.36,1.6-1.15,2.36-1.78,2.31-1.92,4.32-.13,5.7,1.08,1.49,1.31-.52,2.65-1.4,3.64-2.34,2.6-5.35,3.85-8.51,3.65Z"/><path class="cls-2" d="M547.69,1064.84c-6.04-.03-10.89-3.61-12.21-9.01-1.29-5.27,1-10.57,5.69-13.17,5.01-2.78,12.05-1.98,15.68,1.97,.96,1.04,3.24,2.35,1.22,3.98-1.33,1.07-3.26,2.61-5.36,.86-.63-.53-1.19-1.24-1.92-1.56-2.84-1.23-5.61-1.15-7.63,1.49-1.82,2.39-1.72,5.08,.22,7.34,2.11,2.46,4.84,2.67,7.65,1.12,.71-.39,1.21-1.15,1.9-1.59,2.13-1.37,4.03,.01,5.37,1.17,1.64,1.42-.43,2.65-1.24,3.65-2.15,2.64-5.29,3.77-9.36,3.75Z"/><path class="cls-2" d="M946.62,1069.12c3.02-4.31,2.06-7.33,.58-10.47-2.04-4.34-3.91-8.78-5.62-13.26-.44-1.15-2.74-3.19-.02-3.8,2-.45,5.1-1.68,6.41,1.75,1.35,3.53,2.67,7.08,4.19,11.11,2.54-3.05,3.26-6.3,4.05-9.35,.95-3.69,3.28-3.97,6.3-3.74,1.72,.13,2.37,.51,1.58,2.41-3.16,7.65-6.14,15.38-9.29,23.04-1.48,3.61-4.56,1.28-8.17,2.31Z"/><path class="cls-2" d="M521.72,1064.83c-2.01-.01-4-.17-5.8-1.12-1.3-.68-3.79-.8-2.32-3.26,.85-1.43,1.8-3.47,4.23-1.95,.69,.43,1.5,.77,2.3,.91,1.42,.24,3.2,.79,3.78-1.16,.52-1.76-1.15-2.1-2.34-2.57-1.08-.43-2.2-.74-3.27-1.2-3.13-1.34-5.42-3.33-4.87-7.15,.53-3.66,3.06-5.36,6.4-6.01,2.64-.52,5.33-.43,7.83,.62,1.16,.49,3.51,.65,2.48,2.73-.69,1.39-1.78,3.49-4.23,2.19-.43-.23-.92-.41-1.4-.5-1.44-.27-3.39-.92-3.93,.8-.61,1.95,1.62,2.06,2.87,2.69,.44,.22,.94,.31,1.41,.48,3.98,1.49,7.34,3.52,6.46,8.59-.7,4.03-4.07,6.03-9.58,5.91Z"/><path class="cls-2" d="M849.61,1034.44c.63-.51,1.27-1.03,1.9-1.54,3.48-.29,5.82,.5,5.1,4.8-.31,1.84-.21,3.75,2.56,3.72,1.62-.02,1.73,1.19,1.71,2.43-.03,1.16,.11,2.68-1.41,2.74-3.39,.13-2.88,2.44-2.89,4.55,0,3.14-.12,6.29,.04,9.43,.14,2.76-.37,4.19-3.72,4.18-3.31,0-3.34-1.68-3.27-4.02,.08-2.81,.07-5.63,0-8.44-.06-2.47,.91-5.22-3.24-5.92-1.85-.31-1.66-4.22-.52-4.39,5.32-.81,3.48-4.58,3.74-7.53Z"/><path class="cls-2" d="M923.66,1052.61c0-2.48,.22-4.99-.05-7.44-.35-3.17,.93-4.33,3.89-3.76,2.64,.51,5.16,1.75,7.9-.05,.94-.62,2.46,.04,2.36,1.6-.09,1.46,1.05,3.85-1.37,4.12-6.2,.71-5.96,5.14-5.99,9.53-.01,1.49-.15,2.99,.01,4.46,.32,2.88-.92,3.61-3.68,3.64-2.96,.04-3.16-1.43-3.08-3.68,.11-2.81,.03-5.62,.03-8.43h-.02Z"/></g></svg>