<svg xmlns:xlink="http://www.w3.org/1999/xlink" xmlns="http://www.w3.org/2000/svg" viewBox="0 0 24 24" fill="currentColor" width="40" height="40" data-ux="IconSocial" class="x-el x-el-svg c1-1 c1-2 c1-32 c1-1e c1-2c c1-36 c1-37 c1-38 c1-39 c1-b c1-c c1-d c1-e c1-f c1-g"><path fill-rule="evenodd" clip-rule="evenodd" d="M12 22C17.5228 22 22 17.5228 22 12C22 6.47715 17.5228 2 12 2C6.47715 2 2 6.47715 2 12C2 17.5228 6.47715 22 12 22ZM16.9723 10.8705C17.0707 10.8698 17.1692 10.8648 17.2676 10.8554L17.269 10.8547V8.85796C15.7233 8.7452 14.4807 7.54139 14.3184 6H12.5996L12.5816 14.3771C12.5816 15.4049 11.6737 16.2144 10.6459 16.2144C9.61878 16.2144 8.7856 15.3819 8.7856 14.3541C8.7856 13.327 9.61806 12.4938 10.6459 12.4938C10.701 12.4938 10.7545 12.5012 10.808 12.5085C10.8291 12.5114 10.8502 12.5143 10.8714 12.5168V10.7197C10.8503 10.7185 10.8292 10.717 10.808 10.7156C10.7543 10.7119 10.7005 10.7082 10.6459 10.7082C8.63189 10.7082 7 12.3401 7 14.3541C7 16.3681 8.63189 18 10.6459 18C12.6599 18 14.2918 16.3674 14.2918 14.3541V9.4218C14.8844 10.3261 15.8921 10.8705 16.9723 10.8705Z" fill="#1B1B1B"></path></svg>